<?xml version="1.0" encoding="utf-8"?>
<!-- Generator: Adobe Illustrator 23.0.3, SVG Export Plug-In . SVG Version: 6.00 Build 0)  -->
<svg version="1.1" id="Livello_1" xmlns="http://www.w3.org/2000/svg" xmlns:xlink="http://www.w3.org/1999/xlink" x="0px" y="0px"
	 viewBox="0 0 134.41 92.85" style="enable-background:new 0 0 134.41 92.85;" xml:space="preserve">
<style type="text/css">
	.st0{fill:#FFFFFF;}
</style>
<g>
	<path class="st0" d="M67.03,71.57c-12.16,0-24.33,0-36.49,0c-3.35,0-3.53-0.2-3.53-3.55c0-2.58,0.05-5.17-0.02-7.75
		c-0.05-1.74,0.64-2.54,2.4-2.79c4.96-0.69,8.06-4.06,8.1-8.59c0.04-4.53-3.07-8.06-7.96-8.72c-1.89-0.25-2.59-1.03-2.55-2.89
		c0.08-4,0.08-8,0-12c-0.04-2.06,0.87-2.8,2.86-2.79c24.91,0.03,49.83,0.03,74.74-0.01c2.18,0,2.94,0.87,2.94,2.98
		c-0.04,14.41-0.06,28.83,0.01,43.24c0.01,2.44-1.16,2.9-3.26,2.9C91.86,71.54,79.44,71.57,67.03,71.57z M51.64,67.82
		c17.53,0,34.88,0,52.17,0c0-14,0-27.78,0-41.59c-17.49,0-34.77,0-52.12,0c-0.12,1.13-0.22,2.1-0.33,3.14c-1.17,0-2.18,0-3.23,0
		c-0.1-1.16-0.18-2.12-0.27-3.17c-5.76,0-11.39,0-17.33,0c0,2.86,0.1,5.59-0.04,8.3c-0.08,1.62,0.47,2.24,2.04,2.74
		c8.87,2.84,11.48,14.03,4.69,20.32c-1.77,1.64-4.17,2.62-6.51,4.05c0,1.76,0,3.97,0,6.23c5.85,0,11.54,0,17.21,0
		c0.08-1.18,0.15-2.15,0.22-3.14c1.19,0,2.21,0,3.28,0C51.48,65.79,51.55,66.7,51.64,67.82z"/>
	<path class="st0" d="M67.45,61.78c-1.03-0.9-1.76-1.54-2.64-2.32c7.81-9.11,15.47-18.05,23.24-27.11c0.95,0.82,1.68,1.46,2.64,2.29
		C82.96,43.68,75.3,52.62,67.45,61.78z"/>
	<path class="st0" d="M95.21,55.91c-0.05,3.85-3.28,7.04-7.06,6.96c-3.75-0.07-6.99-3.41-6.93-7.15c0.06-3.81,3.28-6.93,7.12-6.89
		C92.2,48.86,95.26,52.02,95.21,55.91z M88.14,59.25c1.96,0.07,3.52-1.4,3.51-3.38c-0.02-2.06-1.1-3.25-3.15-3.44
		c-1.98-0.18-3.57,1.25-3.67,3.2C84.73,57.57,86.2,59.18,88.14,59.25z"/>
	<path class="st0" d="M74.21,38.21c0.06,3.86-3.02,7.06-6.85,7.12c-3.78,0.06-7.05-3.1-7.13-6.89c-0.08-3.84,3.01-7,6.9-7.05
		C71.11,31.34,74.14,34.26,74.21,38.21z M67.14,34.88c-1.96,0.06-3.41,1.64-3.31,3.61c0.09,1.78,1.69,3.34,3.41,3.34
		c1.86,0,3.43-1.65,3.41-3.58C70.63,36.24,69.15,34.82,67.14,34.88z"/>
	<path class="st0" d="M48.15,36.66c1.1,0,2.05,0,3.19,0c0,2.22,0,4.33,0,6.65c-1,0-2.02,0-3.19,0
		C48.15,41.21,48.15,39.08,48.15,36.66z"/>
	<path class="st0" d="M48.17,50.66c1.15,0,2.05,0,3.15,0c0,2.27,0,4.45,0,6.76c-1.05,0-2.02,0-3.15,0
		C48.17,55.23,48.17,53.04,48.17,50.66z"/>
</g>
</svg>
